<svg width="1630" height="889" viewBox="0 0 1630 889" fill="none" xmlns="http://www.w3.org/2000/svg">
<path d="M188.16 706.568C73.8602 759.182 1.28882 454.382 1.28882 454.382V889H1628.7V559.611C1628.7 559.611 1498.07 -44.5462 1430.95 2.62521C1363.82 49.7966 1498.07 497.925 1430.95 546.911C1363.82 595.897 1294.87 38.9108 1222.3 42.5395C1149.73 46.1682 1298.5 650.325 1222.3 626.74C1146.1 603.154 1155.17 254.811 1068.09 245.739C981.003 236.668 926.574 559.611 841.303 497.925C756.032 436.24 819.532 260.254 690.717 262.068C561.903 263.882 618.146 652.14 538.317 690.24C458.489 728.34 429.46 454.382 351.446 454.382C273.432 454.382 302.46 653.954 188.16 706.568Z" fill="url(#paint0_linear_0_1)" fill-opacity="0.53"/>
<path d="M1.28882 455.386C1.28882 455.386 73.8602 760.186 188.16 707.571C302.46 654.957 273.432 455.386 351.446 455.386C429.46 455.386 458.489 729.343 538.317 691.243C618.146 653.143 561.903 264.886 690.717 263.071C819.532 261.257 756.032 437.243 841.303 498.929C926.574 560.614 981.003 237.671 1068.09 246.743C1155.17 255.814 1146.1 604.157 1222.3 627.743C1298.5 651.328 1149.73 47.1715 1222.3 43.5428C1294.87 39.9141 1363.82 596.9 1430.95 547.914C1498.07 498.929 1363.82 50.7999 1430.95 3.62851C1498.07 -43.5429 1628.7 560.614 1628.7 560.614" stroke="#0085FF" stroke-width="2"/>
<path d="M188.16 706.568C73.8602 759.182 1.28882 454.382 1.28882 454.382V889H1628.7V559.611C1628.7 559.611 1498.07 -44.5462 1430.95 2.62521C1363.82 49.7966 1498.07 497.925 1430.95 546.911C1363.82 595.897 1294.87 38.9108 1222.3 42.5395C1149.73 46.1682 1298.5 650.325 1222.3 626.74C1146.1 603.154 1155.17 254.811 1068.09 245.739C981.003 236.668 926.574 559.611 841.303 497.925C756.032 436.24 819.532 260.254 690.717 262.068C561.903 263.882 618.146 652.14 538.317 690.24C458.489 728.34 429.46 454.382 351.446 454.382C273.432 454.382 302.46 653.954 188.16 706.568Z" fill="url(#paint1_linear_0_1)" fill-opacity="0.53"/>
<defs>
<linearGradient id="paint0_linear_0_1" x1="814.996" y1="0" x2="814.996" y2="889" gradientUnits="userSpaceOnUse">
<stop stop-color="#09A6FF"/>
<stop offset="0.793851" stop-color="#0038FF" stop-opacity="0"/>
</linearGradient>
<linearGradient id="paint1_linear_0_1" x1="814.996" y1="0" x2="814.996" y2="889" gradientUnits="userSpaceOnUse">
<stop stop-color="#09A6FF"/>
<stop offset="0.793851" stop-color="#0038FF" stop-opacity="0"/>
</linearGradient>
</defs>
</svg>
